<svg width="138" height="38" viewBox="0 0 138 38" fill="none" xmlns="http://www.w3.org/2000/svg">
<path d="M11.2869 0.636363L18.7443 26.2756H19.0284L26.4858 0.636363H37.6364L25.6335 37H12.1392L0.136364 0.636363H11.2869ZM74.071 18.8182C74.071 22.8665 73.2839 26.2815 71.7095 29.0632C70.1352 31.8331 68.0104 33.9342 65.3352 35.3665C62.66 36.7869 59.6771 37.4972 56.3864 37.4972C53.072 37.4972 50.0772 36.781 47.402 35.3487C44.7386 33.9046 42.6198 31.7976 41.0455 29.0277C39.483 26.246 38.7017 22.8428 38.7017 18.8182C38.7017 14.7699 39.483 11.3608 41.0455 8.59091C42.6198 5.80918 44.7386 3.70809 47.402 2.28764C50.0772 0.855349 53.072 0.139203 56.3864 0.139203C59.6771 0.139203 62.66 0.855349 65.3352 2.28764C68.0104 3.70809 70.1352 5.80918 71.7095 8.59091C73.2839 11.3608 74.071 14.7699 74.071 18.8182ZM63.9148 18.8182C63.9148 16.6402 63.6248 14.8054 63.0447 13.3139C62.4766 11.8106 61.6302 10.6742 60.5057 9.90483C59.393 9.12358 58.0199 8.73295 56.3864 8.73295C54.7528 8.73295 53.3738 9.12358 52.2493 9.90483C51.1366 10.6742 50.2902 11.8106 49.7102 13.3139C49.142 14.8054 48.858 16.6402 48.858 18.8182C48.858 20.9962 49.142 22.8369 49.7102 24.3402C50.2902 25.8317 51.1366 26.968 52.2493 27.7493C53.3738 28.5187 54.7528 28.9034 56.3864 28.9034C58.0199 28.9034 59.393 28.5187 60.5057 27.7493C61.6302 26.968 62.4766 25.8317 63.0447 24.3402C63.6248 22.8369 63.9148 20.9962 63.9148 18.8182ZM75.9354 8.59091V0.636363H107.54V8.59091H96.603V37H86.8729V8.59091H75.9354ZM111.256 37V0.636363H137.463V8.59091H121.128V14.8409H136.114V22.7955H121.128V29.0455H137.392V37H111.256Z" fill="white"/>
</svg>
